<?xml version="1.0" encoding="utf-8"?>
<!-- Generator: Adobe Illustrator 23.1.0, SVG Export Plug-In . SVG Version: 6.00 Build 0)  -->
<svg version="1.1" id="Layer_1" xmlns="http://www.w3.org/2000/svg" xmlns:xlink="http://www.w3.org/1999/xlink" x="0px" y="0px"
	 viewBox="0 0 512 91" style="enable-background:new 0 0 512 91;" xml:space="preserve">
<g style="fill: #fff;">
	<path d="M105.9,49.8c-0.5-3.7-1-8.7-5-12.3c-2.4-2.2-6.3-3.4-11.7-3.4c-3.1,0-5.8,0.6-8,1.7c-2.2,1.2-4.1,2.7-5.7,4.7
		c-1.5,2-2.7,4.3-3.4,6.8c-0.7,2.6-1.1,5.3-1.1,8.2c0,2.9,0.4,5.7,1.1,8.3c0.7,2.6,1.9,4.9,3.4,6.8c1.5,1.9,3.5,3.5,6,4.6
		c2.4,1.2,5.3,1.7,8.7,1.7c4.6,0,8.1-1,10.2-2.9c2.2-1.9,5.1-4.8,5.6-13.4h15.8c-0.4,5.8-2.4,12.2-3.9,15.3c-1.5,3-3.7,5.7-6.3,8
		c-2.7,2.3-5.9,4-9.6,5.3C98.3,90.4,94,91,89,91c-5.5,0-10.4-1-14.6-3s-7.7-4.6-10.6-7.9C61,76.9,59,73,57.4,68.8
		c-1.7-4.4-2.6-9-2.2-13.4c0.4-4.5,0.7-9,2.2-13.3c1.5-4.3,3.6-8.1,6.5-11.4c2.9-3.3,6.4-5.9,10.5-7.9c4.2-2,9-3,14.5-3
		c5.5,0,10.2,0.8,14.2,2.3c3.9,1.5,7.2,3.6,9.7,6c2.6,2.5,4.5,5.3,5.8,8.4c1.3,3.1,2.8,9.8,3.1,13.1H105.9z"/>
	<path d="M169.1,36.7c-1.3-0.3-2.3-0.5-3.1-0.6c-0.8-0.1-2.9-0.5-4.2-0.5c-6.8,0-12,2-15.5,5.9c-3.6,3.9-5.4,10.1-5.4,18.7v29.2
		h-15.8V21.7h15.8l0.2,13.5c0.2,0,0.1,0,0.4,0c0.5-3.7,1.7-5.9,2.4-6.7c1.4-1.4,3.3-3.1,5.2-4.2c1.9-1.1,3.9-2,6.1-2.6
		c2.2-0.6,4.4-0.9,6.6-0.9c2.5,0,5.7,0.7,7.3,1.4V36.7z"/>
	<path d="M237.4,21.7v67.6h-15.8v-9.1c-2.1,3.4-5.2,6-9.1,8s-7.9,2.9-11.8,2.9c-5.1,0-9.8-0.9-14.1-2.8c-4.3-1.9-7.9-4.5-11-7.8
		c-3-3.3-5.4-7.1-7.1-11.3c-1.7-4.3-2.5-8.8-2.5-13.6c0-4.7,0.8-9.3,2.5-13.6c1.7-4.3,4.1-8.1,7.1-11.4c3-3.3,6.7-5.9,11-7.8
		c4.3-1.9,8.9-2.8,14.1-2.8c4,0,7.9,1,11.8,2.9c3.6,1.8,5.7,3.7,8,6.8c0,0,0,0,1.1,4.2l-0.1-4.3v-7.9H237.4z M201.5,76.7
		c3,0,5.7-0.6,8.1-1.7c2.4-1.1,4.5-2.7,6.2-4.6c1.7-1.9,3.1-4.2,4-6.7c1-2.6,1.4-5.3,1.4-8.2c0-2.9-0.5-5.6-1.4-8.2
		c-1-2.6-2.3-4.8-4-6.7c-1.7-1.9-3.8-3.4-6.2-4.6c-2.4-1.1-5.1-1.7-8.1-1.7c-3,0-5.6,0.6-8,1.7c-2.4,1.1-4.4,2.7-6.2,4.6
		c-1.7,1.9-3,4.2-3.9,6.7c-0.9,2.6-1.4,5.3-1.4,8.2c0,2.9,0.5,5.6,1.4,8.2c0.9,2.6,2.2,4.8,3.9,6.7c1.7,1.9,3.8,3.4,6.2,4.6
		C195.9,76.1,198.6,76.7,201.5,76.7z"/>
	<path d="M329.3,89.3V50c0-5.4-1-9.7-3-12.8c-2-3.1-5.2-4.7-9.7-4.7c-2,0-3.9,0.3-5.6,1c-1.7,0.7-3.2,1.8-4.5,3.5
		c-1.3,1.6-2.3,3.8-3,6.5c-0.7,2.7-1.1,6-1.1,10.1v35.9h-15.8V49.8c0-5.4-0.9-9.7-2.8-12.8c-1.9-3.1-5.1-4.6-9.5-4.6
		c-2,0-3.9,0.3-5.7,1c-1.7,0.7-3.3,1.8-4.6,3.5c-1.3,1.6-2.3,3.8-3.1,6.5c-0.8,2.7-1.2,6-1.2,10.1v35.9h-15.8V21.7h15.8v9.4
		c1.5-3.1,3.8-5.7,7.2-7.9c3.3-2.2,7.2-3.3,11.7-3.3c6.2,0,10.9,1.2,14.2,3.5c3.3,2.3,5.7,5.2,7.1,8.6c1.6-3.4,4.3-6.2,8-8.6
		c3.7-2.3,7.9-3.5,12.8-3.5c5,0,9.1,0.8,12.3,2.4c3.2,1.6,5.7,3.7,7.5,6.2c1.8,2.5,3,5.3,3.6,8.5c0.6,3.1,0.9,6.3,0.9,9.5v42.8
		H329.3z"/>
	<path d="M367.2,89.3h-15.8V0h15.8v34.2c0.2,0.3,0.4-4.1,0.4-4.1c2.1-3.2,4.8-5.4,8.6-7.3c3.9-1.9,7.9-2.9,11.8-2.9
		c5.1,0,9.8,0.9,14.1,2.8c4.3,1.9,7.9,4.5,11,7.8c3,3.3,5.4,7.1,7.1,11.4c1.7,4.3,2.5,8.8,2.5,13.6c0,4.8-0.8,9.4-2.5,13.6
		c-1.7,4.3-4.1,8-7.1,11.3c-3,3.3-6.7,5.9-11,7.8c-4.3,1.9-9,2.8-14.1,2.8c-4,0-7.9-1-11.8-2.9c-3.9-1.9-6.9-4.6-9.1-8V89.3z
		 M387.2,76.7c3,0,5.6-0.6,8-1.7c2.4-1.1,4.4-2.7,6.2-4.6c1.7-1.9,3-4.2,3.9-6.7c0.9-2.6,1.4-5.3,1.4-8.2c0-2.9-0.5-5.6-1.4-8.2
		c-0.9-2.6-2.2-4.8-3.9-6.7c-1.7-1.9-3.8-3.4-6.2-4.6c-2.4-1.1-5.1-1.7-8-1.7c-3.1,0-5.8,0.6-8.2,1.7c-2.4,1.1-4.5,2.7-6.2,4.6
		c-1.7,1.9-3,4.2-3.9,6.7c-0.9,2.6-1.4,5.3-1.4,8.2c0,2.9,0.5,5.6,1.4,8.2c0.9,2.6,2.2,4.8,3.9,6.7c1.7,1.9,3.8,3.4,6.2,4.6
		C381.4,76.1,384.1,76.7,387.2,76.7z"/>
	<path d="M426.7,0h15.8v89.3h-15.8V0z"/>
	<path d="M462.6,60.3c0.2,2.4,0.6,4.7,1.3,6.8c0.7,2.1,1.7,4,3.1,5.6c1.4,1.6,3.2,2.9,5.4,3.8c2.2,0.9,5,1.4,8.3,1.4
		c4.5,0,8.9-1.5,10.9-3.3c2.7-2.6,3.4-5.8,3.6-8h16c-0.8,5-1.9,8.3-3.5,10.9c-1.6,2.7-3.4,4.9-6,6.9c-2.6,2-5.7,3.7-9.1,4.9
		c-3.5,1.2-7.4,1.8-11.8,1.8c-5.7,0-10.7-0.9-14.9-2.8c-4.2-1.8-7.7-4.4-10.5-7.5c-2.8-3.2-4.9-7-6.3-11.3c-1.4-4.4-2.1-9-2.1-13.9
		c0-5,0.7-9.7,2.3-14.1c1.5-4.4,3.7-8.1,6.5-11.3c2.8-3.2,6.3-5.7,10.5-7.5c4.2-1.8,8.9-2.7,14.2-2.7c4.4,0,8.4,0.8,12.3,2.3
		c3.8,1.5,7.2,3.7,10,6.5c2.9,2.8,5.1,6,6.7,9.7c1.6,3.7,2.6,8.8,2.7,12.5c0.1,2,0.1,6.9-0.1,9.4L462.6,60.3z M480.6,31.8
		c-5.2,0-9.5,1.4-12.9,4.2c-3.4,2.8-5.2,7-5.2,12.5h35.2c0-5.2-1.6-9.3-4.8-12.3C489.8,33.3,485.7,31.8,480.6,31.8z"/>
	<path d="M52.8,62.7c-1-2-2.4-3.8-4.1-5.2c-1.7-1.5-3.7-2.7-6-3.6c-2.2-1-4.5-1.9-6.8-2.8c-3.1-1.2-5.8-2.2-8.1-3
		c-2.3-0.8-4.3-1.6-5.8-2.3c-1.5-0.7-2.7-1.5-3.5-2.5c-0.8-0.9-1.2-2.1-1.2-3.6c0-2.4,0.9-4.3,2.8-5.5c1.9-1.3,4.2-1.9,6.9-1.9
		c3.9,0,6.3,1.4,8.3,2.8c2.4,1.7,3.9,4.6,3.4,8.8c0.4,0.4,0.6,0.7,1,1.1l13,0c0.5-4.1,0.5-7.6-1.5-11.4c-1.5-2.7-3.2-5.2-5.5-7.3
		c-2.3-2-5.1-3.6-8.2-4.8c-3.1-1.2-6.5-1.7-10.1-1.7c-3.5,0-6.7,0.4-9.8,1.2c-3,0.8-5.7,2.1-8.1,3.8c-2.3,1.7-4.2,3.8-5.5,6.2
		c-1.4,2.4-2,5.2-2,8.4c0,2.9,0.4,5.4,1.2,7.4c0.8,2,1.9,3.7,3.3,5.1c1.5,1.4,3.2,2.5,5.2,3.6c2,1,4.1,2,6.5,2.8
		c3.6,1.4,6.7,2.5,9.3,3.3c2.6,0.9,4.8,1.7,6.5,2.5c1.7,0.8,3,1.7,3.9,2.7c0.9,1,1.3,2.2,1.3,3.8c0,2.9-1.1,4.9-3.2,6.1
		c-2.1,1.2-4.7,1.7-7.8,1.7c-3.8,0-6.7-1.1-9.4-2.7c-3.4-2-5.8-6.7-4.1-11.9c-0.4-0.5-0.6-0.7-1-1.2H0.4C-0.7,68.4,0.6,74.1,2,77
		c1.5,3,3.5,5.6,6.1,7.7c2.6,2.1,5.5,3.7,8.8,4.7c3.3,1.1,6.8,1.6,10.5,1.6c3.7,0,7.2-0.4,10.5-1.2c3.3-0.8,6.2-2.1,8.6-3.8
		c2.5-1.7,4.4-3.8,5.8-6.5c1.4-2.6,2.1-5.7,2.1-9.1C54.4,67.3,53.8,64.8,52.8,62.7z"/>
</g>
</svg>
